<svg xmlns="http://www.w3.org/2000/svg" width="20" height="19" viewBox="0 0 20 19"><g><g><g><path fill="#4d4d4d" d="M10.101 15.55l-.1.1-.102-.1C5.141 11.24 2.001 8.39 2.001 5.5 2 3.5 3.5 2 5.499 2c1.542 0 3.04.99 3.57 2.36h1.873C11.459 2.99 12.96 2 14.5 2c2 0 3.5 1.5 3.5 3.5 0 2.89-3.14 5.74-7.899 10.05zM14.501 0C12.76 0 11.09.81 10 2.09 8.91.81 7.238 0 5.498 0 2.421 0 .001 2.42.001 5.5c0 3.78 3.4 6.86 8.55 11.54L10 18.35l1.449-1.32c5.15-4.67 8.551-7.75 8.551-11.53 0-3.08-2.421-5.5-5.5-5.5z"/></g></g></g></svg>