<svg xmlns="http://www.w3.org/2000/svg" width="16" height="16" viewBox="0 0 16 16"><g><g><g><g><path fill="#666" d="M11.015 2H4.93c-.885 0-1.659.277-2.156.775C2.276 3.272 2 4.046 2 4.93v6.083c0 .885.276 1.659.83 2.212.553.498 1.272.774 2.155.774h6.03c.884 0 1.659-.276 2.156-.774.553-.498.83-1.272.83-2.156V4.986c0-.884-.277-1.603-.775-2.156-.552-.553-1.272-.83-2.211-.83zm4.984 9.309c0 1.383-.482 2.586-1.327 3.428C13.827 15.58 12.619 16 11.29 16H4.709c-1.328 0-2.536-.42-3.381-1.263C.422 13.895 0 12.692 0 11.31V4.692C0 1.925 1.872 0 4.71 0h6.642c1.389 0 2.535.481 3.38 1.324.848.842 1.268 1.984 1.268 3.368zM8 10a2 2 0 1 0 .002-4A2 2 0 0 0 8 10zm-.028 2C5.752 12 4 10.177 4 8c0-2.235 1.81-4 3.97-4S12 5.765 12 8c0 2.235-1.812 4-4.03 4zM12 5c-.564 0-1-.437-1-1 0-.562.436-1 1-1 .562 0 .999.438.999 1 0 .563-.437 1-1 1z"/></g></g></g></g></svg>